<svg width="176" height="40" viewBox="0 0 176 40" fill="none" xmlns="http://www.w3.org/2000/svg">
<path d="M81.2903 20.7316C81.2903 18.4692 81.2903 16.2049 81.2903 13.9425C81.2903 13.5915 81.2944 13.5852 81.6401 13.5852C83.9838 13.5852 86.3335 13.4917 88.6708 13.6122C90.6601 13.7161 92.2413 14.6821 93.0788 16.5705C93.5955 17.7371 93.5799 19.0452 93.2163 20.2371C92.9225 21.2115 92.3746 21.9989 91.4998 22.541C91.3226 22.6511 91.1664 22.8297 90.9769 22.8796C90.7019 22.9502 90.7039 23.0437 90.8726 23.2079C91.2373 23.559 91.5476 23.9557 91.8746 24.3401C92.4871 25.061 93.1475 25.7424 93.8058 26.4216C94.114 26.7395 94.2265 27.0969 94.1849 27.5227C94.1599 27.7782 94.0453 27.9029 93.7808 27.9132C93.4849 27.9236 93.1891 27.9154 92.8933 27.9154C92.1038 27.9154 91.3143 27.9111 90.5248 27.9174C90.1054 27.9174 90.1476 27.6716 89.9206 27.4354C89.3999 26.8621 88.8708 26.297 88.3541 25.7195C88.1 25.437 87.8625 25.1377 87.6209 24.8427C87.3793 24.5479 87.1943 24.3467 86.8689 23.9745C86.7045 23.8177 86.3861 23.5195 85.9023 23.4737C85.5926 23.4737 85.3443 23.4737 84.9983 23.4737C84.9983 23.8274 84.9983 24.0991 84.9983 24.3899C84.994 25.4722 84.9899 26.5546 85.0024 27.637C85.0045 27.8655 84.9336 27.9215 84.7129 27.9195C83.6775 27.9091 82.6401 27.9029 81.6048 27.9236C81.3256 27.9299 81.286 27.8447 81.286 27.5934C81.2965 25.3061 81.2923 23.0167 81.2923 20.7295L81.2903 20.7316ZM86.7605 17.1294C86.2419 17.1294 85.7231 17.1335 85.2044 17.1272C85.0483 17.1251 84.9899 17.173 84.992 17.3329C84.9983 18.1701 85.0003 19.0074 84.992 19.8445C84.9899 20.0397 85.0524 20.0917 85.2419 20.0896C86.2294 20.0814 87.2209 20.1291 88.2041 20.071C88.827 20.0336 89.402 19.8652 89.6395 19.1029C89.8728 18.3612 89.579 17.5054 88.8479 17.283C88.1614 17.0745 87.4735 17.1314 86.7626 17.1314L86.7605 17.1294Z" fill="black"/>
<path d="M97.1492 20.7129C97.1492 18.4734 97.1492 16.2319 97.1492 13.9924C97.1492 13.5894 97.1533 13.5852 97.5242 13.5852C100.98 13.5852 104.438 13.5852 107.894 13.5852C108.257 13.5852 108.261 13.5894 108.263 13.9239C108.265 14.9085 108.265 15.8932 108.263 16.878C108.263 17.2726 108.259 17.2769 107.882 17.2769C105.857 17.2769 103.832 17.2769 101.807 17.281C101.495 17.281 101.182 17.3184 100.87 17.337C100.866 17.63 100.857 17.9229 100.855 18.2179C100.855 18.6749 101.084 18.9035 101.543 18.9035C103.567 18.9035 105.592 18.9035 107.617 18.9035C107.963 18.9035 107.967 18.9096 107.967 19.2607C107.969 20.2205 107.952 21.1824 107.977 22.1401C107.984 22.4289 107.884 22.4537 107.64 22.4537C105.665 22.4455 103.69 22.4475 101.713 22.4475C101.565 22.4475 101.418 22.4412 101.27 22.4475C100.995 22.4621 100.866 22.5742 100.857 22.8256C100.847 23.1705 100.847 23.5154 100.857 23.8602C100.863 24.0804 100.993 24.2092 101.218 24.2175C101.39 24.2257 101.563 24.2175 101.736 24.2175C103.786 24.2175 105.836 24.2175 107.884 24.2175C108.259 24.2175 108.263 24.2216 108.263 24.6185C108.265 25.6031 108.261 26.5879 108.267 27.5725C108.267 27.7906 108.286 27.9215 107.967 27.9215C104.461 27.9049 100.955 27.9049 97.4492 27.9215C97.1345 27.9215 97.147 27.7969 97.147 27.5746C97.1513 25.2852 97.1492 22.996 97.1492 20.7066V20.7129Z" fill="black"/>
<path d="M140.486 27.9174C139.92 27.9174 139.351 27.9029 138.785 27.9236C138.566 27.932 138.504 27.8385 138.458 27.6597C138.111 26.8822 137.976 26.517 137.714 25.8981C137.536 25.4782 137.463 25.4057 136.981 25.4057C135.254 25.4057 133.525 25.4307 131.798 25.385C131.421 25.3746 131.335 25.5865 131.241 25.788C130.956 26.4091 130.736 27.0574 130.393 27.6515C130.313 27.7886 130.305 27.9299 130.068 27.9257C128.906 27.907 127.746 27.9195 126.588 27.9154C126.321 27.9154 126.301 27.8862 126.409 27.6307C127.825 24.2771 129.31 20.9484 130.885 17.6674C131.309 16.7886 131.675 15.8787 132.104 14.9979C132.284 14.6301 132.413 14.2396 132.566 13.8595C132.648 13.6621 132.784 13.5749 133.013 13.579C134.025 13.5894 135.035 13.5852 136.048 13.5811C136.191 13.5811 136.239 13.6144 136.281 13.7701C136.448 14.3871 136.711 14.8127 137.029 15.5297C137.575 16.7619 138.139 17.8456 138.639 18.9969C139.876 21.8554 141.169 24.6972 142.473 27.5269C142.595 27.7906 142.499 27.9154 142.189 27.9174C141.623 27.9215 141.054 27.9174 140.486 27.9174ZM134.398 21.8596C134.644 21.8596 134.89 21.8596 135.138 21.8596C135.935 21.8596 135.939 21.8596 135.61 21.1242C135.341 20.5239 135.063 19.9255 134.794 19.3251C134.71 19.1382 134.65 18.9429 134.565 18.756C134.493 18.6016 134.411 18.6164 134.348 18.7372C134.265 18.8992 134.159 19.053 134.104 19.2255C133.74 20.0415 133.456 20.7254 133.159 21.4877C133.141 21.5304 132.956 21.8492 133.141 21.8492C133.56 21.8659 133.979 21.8575 134.398 21.8575V21.8596Z" fill="black"/>
<path d="M76.6969 18.4423C76.6969 19.8466 76.7157 21.2489 76.6907 22.6533C76.6698 23.8186 76.2803 24.8969 75.5949 25.813C74.8326 26.833 73.8034 27.5643 72.5536 27.9133C71.1177 28.3134 68.7846 28.419 67.4519 27.6079C66.4232 26.9843 65.7447 26.3293 64.9897 25.4286C64.2257 24.5098 63.9502 23.1138 63.9502 21.9406C63.9543 19.3791 63.9523 16.8198 63.9523 14.2584C63.9523 14.2334 63.9523 14.2085 63.9523 14.1835C63.9586 13.6475 64.0064 13.5894 64.5209 13.5874C65.3604 13.5831 66.2001 13.5874 67.0396 13.5874C67.1624 13.5874 67.2874 13.5811 67.4103 13.5874C67.6707 13.6039 67.7894 13.7244 67.8041 13.9861C67.8123 14.1336 67.8041 14.2811 67.8041 14.4286C67.8041 17.0379 67.8207 19.6493 67.7936 22.2585C67.7853 23.0853 68.2769 24.0804 69.3852 24.5166C69.9204 24.7285 70.7017 24.6621 71.2703 24.5499C72.1598 24.3734 72.5453 23.7439 72.8369 23.0064C72.9577 22.6989 72.9973 22.3749 72.9952 22.0341C72.9827 19.4726 72.9889 16.9133 72.9889 14.3518C72.9889 14.1794 72.9994 14.007 72.9869 13.8345C72.9744 13.6538 73.0202 13.5769 73.2264 13.579C74.2888 13.5894 75.3512 13.5894 76.4116 13.579C76.6344 13.5769 76.7011 13.6351 76.6991 13.8615C76.6886 15.3885 76.6948 16.9154 76.6948 18.4423H76.6969Z" fill="black"/>
<path d="M54.7759 28.2249C54.3927 28.1875 53.7427 28.2227 53.1594 28.0441C50.5968 27.2654 48.4822 25.6582 47.8162 22.9939C47.4293 21.4354 47.4462 20.0167 47.8662 18.4692C48.0787 17.6922 48.3932 16.9444 48.8702 16.3025C49.6347 15.2741 50.5888 14.437 51.8033 13.9612C52.8342 13.5584 53.9648 13.3095 55.0779 13.2861C55.9821 13.2736 56.8466 13.4939 57.6902 13.7742C58.7068 14.115 59.5754 14.707 60.3108 15.4881C60.4796 15.6667 60.6587 15.8371 60.8337 16.0116C60.6504 16.1509 60.4483 16.2734 60.2858 16.4334C59.6504 17.0525 59.0172 17.6757 58.4027 18.3155C58.2486 18.4776 58.1839 18.4131 58.0818 18.2926C57.7214 17.871 57.3069 17.5136 56.7882 17.3059C56.3591 17.1335 55.9154 16.9735 55.4426 16.9839C54.9426 16.9942 54.4489 16.9735 53.9427 17.1106C53.0323 17.3599 52.3219 17.819 51.8449 18.6334C51.0362 20.0187 50.9011 22.5635 52.3512 23.6607C54.0977 24.9791 56.2061 24.846 57.9048 23.5277C58.0402 23.4219 58.1631 23.2951 58.2693 23.1621C58.3798 23.025 58.4402 23.0791 58.5359 23.1767C59.3172 23.964 60.1026 24.7472 60.8941 25.5262C60.9941 25.6239 60.9524 25.6571 60.8816 25.7402C60.2733 26.4611 59.5047 27.0157 58.6902 27.4292C58.0319 27.7636 57.2841 27.9714 56.5174 28.0919C56.0133 28.1709 55.5196 28.1957 54.7781 28.2269L54.7759 28.2249Z" fill="black"/>
<path d="M118.725 28.2249C118.342 28.1875 117.692 28.2227 117.109 28.0441C114.546 27.2654 112.431 25.6582 111.765 22.9939C111.378 21.4354 111.395 20.0167 111.815 18.4692C112.028 17.6922 112.342 16.9444 112.819 16.3025C113.584 15.2741 114.538 14.437 115.752 13.9612C116.783 13.5584 117.914 13.3095 119.027 13.2861C119.931 13.2736 120.796 13.4939 121.639 13.7742C122.656 14.115 123.525 14.707 124.26 15.4881C124.429 15.6667 124.608 15.8371 124.783 16.0116C124.6 16.1509 124.397 16.2734 124.235 16.4334C123.6 17.0525 122.966 17.6757 122.352 18.3155C122.198 18.4776 122.133 18.4131 122.031 18.2926C121.671 17.871 121.256 17.5136 120.737 17.3059C120.308 17.1335 119.865 16.9735 119.392 16.9839C118.892 16.9942 118.398 16.9735 117.892 17.1106C116.981 17.3599 116.271 17.819 115.794 18.6334C114.985 20.0187 114.85 22.5635 116.3 23.6607C118.047 24.9791 120.155 24.846 121.854 23.5277C121.989 23.4219 122.112 23.2951 122.218 23.1621C122.329 23.025 122.389 23.0791 122.485 23.1767C123.266 23.964 124.052 24.7472 124.843 25.5262C124.943 25.6239 124.902 25.6571 124.831 25.7402C124.222 26.4611 123.454 27.0157 122.639 27.4292C121.981 27.7636 121.233 27.9714 120.467 28.0919C119.962 28.1709 119.469 28.1957 118.727 28.2269L118.725 28.2249Z" fill="black"/>
<path d="M159.985 20.717C159.985 18.4776 159.985 16.2381 159.985 13.9986C159.985 13.5872 159.989 13.5852 160.426 13.5852C161.364 13.5852 162.301 13.5852 163.241 13.5852C163.686 13.5852 163.689 13.5872 163.691 14.0651C163.691 15.9099 163.691 17.7567 163.691 19.6015C163.691 21.0785 163.691 22.5535 163.691 24.0305C163.691 24.365 163.698 24.3691 164.06 24.3691C166.035 24.3691 168.009 24.3691 169.983 24.3691C170.351 24.3691 170.358 24.3732 170.358 24.7015C170.359 25.6614 170.353 26.6211 170.361 27.5809C170.361 27.8052 170.368 27.9277 170.058 27.9257C166.799 27.9091 163.541 27.9091 160.283 27.9257C159.973 27.9257 159.979 27.8052 159.979 27.5809C159.985 25.2915 159.983 23.0042 159.983 20.715L159.985 20.717Z" fill="black"/>
<path d="M145.757 20.7544C145.757 18.49 145.757 16.2278 145.757 13.9634C145.757 13.5873 145.761 13.5831 146.157 13.5831C147.07 13.5811 147.984 13.579 148.896 13.5831C149.409 13.5853 149.461 13.6414 149.461 14.1815C149.461 17.3558 149.461 20.528 149.461 23.7023C149.461 24.1455 149.672 24.3671 150.094 24.3671C151.969 24.3671 153.844 24.3671 155.721 24.3671C156.125 24.3671 156.129 24.3713 156.129 24.7389C156.129 25.7236 156.129 26.7063 156.134 27.691C156.134 27.8364 156.11 27.9258 155.937 27.9133C155.815 27.905 155.691 27.9133 155.566 27.9133H146.314C146.215 27.9133 146.114 27.9008 146.017 27.9154C145.765 27.9528 145.751 27.8156 145.751 27.6141C145.757 25.7943 145.755 23.9724 145.755 22.1525V20.7503L145.757 20.7544Z" fill="black"/>
<path d="M23.9806 3.58787C23.9874 3.6049 23.9925 3.63555 24.0027 3.63725C24.0515 3.64491 24.1019 3.64151 24.1505 3.64917C24.3246 3.67556 24.498 3.61171 24.6781 3.696C24.8319 3.76752 25.0325 3.65428 25.1939 3.77007C25.3945 3.7258 25.5814 3.8169 25.7752 3.83648C25.9331 3.85266 26.0911 3.89863 26.2482 3.93185C26.4531 3.97442 26.6564 4.02125 26.8604 4.06977C27.2001 4.15066 27.534 4.25113 27.8712 4.33968C28.2187 4.43078 28.5449 4.57467 28.8837 4.68196C29.1151 4.75517 29.3406 4.84883 29.5625 4.9476C29.8785 5.08978 30.1935 5.23538 30.4991 5.39715C30.99 5.65855 31.4792 5.92163 31.9514 6.22048C32.3782 6.49123 32.777 6.80116 33.2065 7.0668C33.3131 7.13236 33.3882 7.23708 33.5001 7.30776C33.6811 7.4227 33.8331 7.58362 33.9945 7.72836C34.2232 7.93356 34.4555 8.1362 34.6766 8.34991C35.0207 8.68111 35.2171 9.10512 35.381 9.54191C35.4374 9.69176 35.4476 9.86203 35.457 10.0238C35.4697 10.235 35.4544 10.4478 35.4612 10.659C35.4697 10.8948 35.3904 11.1136 35.3127 11.3256C35.2299 11.5521 35.1231 11.7726 34.9806 11.977C34.8132 12.2171 34.6109 12.4248 34.3915 12.6061C34.0627 12.8786 33.6837 13.0634 33.2576 13.163C32.87 13.2533 32.4832 13.2108 32.0974 13.2099C31.9249 13.2099 31.7456 13.1384 31.5817 13.071C31.1607 12.8965 30.7911 12.6539 30.4565 12.3337C30.1926 12.0817 29.9024 11.8493 29.6035 11.6288C29.3021 11.4057 28.988 11.1979 28.6797 10.9859C28.357 10.7646 27.9907 10.6053 27.6356 10.4342C27.2146 10.2316 26.7775 10.0604 26.3352 9.91142C25.9964 9.79648 25.6404 9.73177 25.292 9.64492C25.0682 9.58873 24.8404 9.55808 24.615 9.51551C24.218 9.44143 23.8201 9.4176 23.4196 9.39035C23.2174 9.37587 23.0116 9.35118 22.8066 9.34097C22.3977 9.32053 21.9972 9.43377 21.5866 9.41248C21.4722 9.40652 21.3467 9.4755 21.2177 9.46442C21.0804 9.45251 20.9634 9.54957 20.8174 9.52998C20.697 9.51381 20.5809 9.62278 20.4485 9.58447C19.8406 9.77605 19.2157 9.91312 18.624 10.1634C18.2365 10.3278 17.8386 10.4734 17.4731 10.6803C17.0446 10.9238 16.6117 11.163 16.2207 11.4712C15.915 11.7122 15.6051 11.9463 15.3037 12.1932C15.0084 12.4359 14.7351 12.699 14.4832 12.9783C14.0247 13.4874 13.5962 14.0246 13.2282 14.6061C12.9209 15.0915 12.6605 15.6006 12.4197 16.1191C12.2157 16.5594 12.0637 17.0225 11.9091 17.4823C11.8588 17.6313 11.8263 17.7931 11.7973 17.9506C11.7691 18.1005 11.7444 18.2571 11.7017 18.3976C11.6137 18.6829 11.6436 18.9876 11.5309 19.2644C11.5241 19.2814 11.5309 19.3044 11.5301 19.3248C11.5258 19.822 11.4567 20.315 11.4601 20.814C11.4626 21.2023 11.542 21.5819 11.5412 21.9694C11.5412 22.0843 11.5967 22.2111 11.5907 22.338C11.5839 22.4751 11.6744 22.5918 11.659 22.7374C11.6462 22.8556 11.6931 22.9868 11.7222 23.1026C11.7965 23.3929 11.8622 23.6884 11.9655 23.9694C12.0201 24.1166 12.0517 24.2725 12.1277 24.418C12.1994 24.5543 12.2268 24.7169 12.2976 24.8616C12.3668 25.003 12.3787 25.175 12.4573 25.3095C12.6127 25.5776 12.7032 25.8816 12.9012 26.1269C12.9414 26.1763 12.9593 26.2435 12.9875 26.3023C13.0737 26.4836 13.0745 26.4845 12.9354 26.6241C12.1627 27.3955 11.3901 28.166 10.6165 28.9366C10.5662 28.9868 10.5167 29.037 10.4663 29.0864C10.421 29.1308 10.427 29.1708 10.4705 29.2116C10.5004 29.2389 10.5278 29.2686 10.5568 29.2968C11.8306 30.567 13.1044 31.8374 14.3791 33.1069C14.4747 33.2023 14.4765 33.2023 14.5721 33.1069C15.4165 32.2648 16.2609 31.4228 17.106 30.5806C17.2076 30.4803 17.2119 30.4743 17.3374 30.5466C17.7114 30.7629 18.105 30.9383 18.5045 31.1C18.905 31.2619 19.302 31.4338 19.7322 31.5061C19.9807 31.6603 20.2829 31.6236 20.5476 31.7353C20.7021 31.8008 20.8909 31.7855 21.0632 31.8093C21.1871 31.8264 21.31 31.8493 21.433 31.8689C21.5465 31.8868 21.6677 31.8314 21.7761 31.9251C21.8111 31.9549 21.894 31.9303 21.9546 31.9303C22.5112 31.9303 23.0687 31.9446 23.6246 31.9243C23.8816 31.9149 24.1411 31.8834 24.3964 31.8161C24.5424 31.7769 24.702 31.7838 24.8566 31.7583C25.3919 31.6688 25.9041 31.5113 26.4206 31.3529C27.0431 31.1623 27.6279 30.8864 28.1982 30.5884C28.6251 30.3653 29.0417 30.1124 29.426 29.8101C29.7794 29.5318 30.1346 29.2584 30.471 28.9579C30.64 28.8071 30.8107 28.6556 30.973 28.4981C31.0557 28.418 31.1036 28.2989 31.1924 28.229C31.4912 27.994 31.7806 27.7583 32.1511 27.616C32.7402 27.3895 33.1501 27.358 33.5436 27.3989C33.793 27.4244 34.05 27.4679 34.2899 27.5684C34.517 27.6645 34.7279 27.7863 34.9327 27.9216C35.4954 28.2946 35.8215 28.8404 36.041 29.4568C36.0947 29.6066 36.1417 29.7659 36.1322 29.9353C36.1204 30.1465 36.1374 30.3593 36.128 30.5705C36.1084 31.0251 35.9564 31.4431 35.7156 31.822C35.4211 32.2853 35.0259 32.6693 34.6177 33.0294C34.4479 33.1793 34.2839 33.3368 34.1131 33.4866C33.9731 33.6093 33.84 33.7454 33.6845 33.8468C33.53 33.9473 33.3875 34.0656 33.25 34.1796C32.7906 34.5628 32.2759 34.8608 31.7866 35.198C31.6235 35.3104 31.4502 35.4083 31.2761 35.5028C30.8961 35.7089 30.5205 35.9225 30.1295 36.1056C29.7154 36.2998 29.2936 36.4836 28.8659 36.6445C28.5525 36.762 28.2255 36.8583 27.9029 36.9588C27.4332 37.1051 26.9542 37.2159 26.4761 37.3291C26.3617 37.3564 26.2286 37.3401 26.1415 37.393C26.0314 37.4603 25.928 37.4185 25.8265 37.444C25.5635 37.5105 25.2945 37.5351 25.0281 37.576C24.8736 37.5999 24.7157 37.5948 24.5671 37.6296C24.2624 37.7011 23.9472 37.6373 23.6519 37.6969C23.3317 37.7616 23.0184 37.725 22.7025 37.7446C22.233 37.7744 21.771 37.639 21.3006 37.685C21.1136 37.6015 20.9045 37.6654 20.7209 37.616C20.4144 37.5334 20.0874 37.5735 19.792 37.4424C19.506 37.4628 19.2311 37.3768 18.9672 37.3028C18.706 37.2295 18.4387 37.158 18.1775 37.0941C17.8001 37.0021 17.4356 36.8753 17.0719 36.751C16.5511 36.5721 16.0337 36.3764 15.5462 36.1124C15.3661 36.0154 15.1577 35.9676 14.9827 35.8629C14.6267 35.6493 14.2545 35.4654 13.9019 35.2448C13.5962 35.0533 13.2889 34.8634 12.996 34.653C12.7851 34.5015 12.57 34.355 12.3634 34.1959C12.0867 33.983 11.8391 33.7335 11.542 33.5463C11.5002 33.5198 11.4712 33.4746 11.4336 33.4406C11.1903 33.2201 10.9802 32.9681 10.713 32.7698C10.5346 32.6369 10.4057 32.4376 10.2571 32.2665C10.1085 32.0945 9.91987 31.9634 9.80034 31.7599C9.70728 31.6015 9.56128 31.4746 9.44091 31.3316C9.09854 30.9264 8.78264 30.5015 8.49407 30.057C8.17049 29.5599 7.87594 29.0448 7.58993 28.5245C7.41319 28.2035 7.25781 27.8706 7.11438 27.5394C6.97179 27.2081 6.78141 26.8864 6.73018 26.5176C6.50223 26.1635 6.49113 25.731 6.30586 25.3606C6.32208 25.1911 6.22389 25.0506 6.18718 24.8958C6.15047 24.7399 6.08644 24.5833 6.07278 24.4309C6.04802 24.1508 5.97631 23.8791 5.92678 23.6066C5.87043 23.2984 5.87812 22.9766 5.75944 22.6803C5.75262 22.6633 5.75774 22.6403 5.75944 22.6199C5.78421 22.1823 5.66979 21.7523 5.69199 21.312C5.70566 21.0498 5.60747 20.7756 5.64931 20.5219C5.71419 20.1243 5.65784 19.7266 5.70566 19.335C5.74834 18.9783 5.79189 18.6224 5.82007 18.2639C5.95411 18.1081 5.83884 17.908 5.92422 17.7309C5.99594 17.5819 5.95837 17.3853 6.00618 17.2201C6.13339 16.7868 6.21963 16.344 6.34854 15.9106C6.47149 15.4968 6.61834 15.0906 6.73701 14.676C6.80532 14.4359 6.93167 14.212 7.02901 13.9795C7.19804 13.5743 7.37051 13.169 7.58566 12.7875C7.82129 12.3695 8.03559 11.937 8.31563 11.5445C8.44199 11.3665 8.55127 11.1766 8.67592 10.997C8.88424 10.6964 9.09342 10.3976 9.32479 10.1132C9.56641 9.81521 9.82852 9.53425 10.071 9.23795C10.4091 8.82415 10.7899 8.45463 11.1817 8.10043C11.4831 7.82798 11.7649 7.52146 12.1286 7.32138C12.6041 6.86416 13.1727 6.53296 13.7166 6.1711C14.1546 5.87991 14.6241 5.63641 15.098 5.40567C15.2747 5.31967 15.4591 5.24901 15.6325 5.1579C15.9569 4.98762 16.2992 4.86416 16.639 4.73048C17.0497 4.56786 17.468 4.43503 17.8881 4.30307C18.1579 4.21792 18.4277 4.13618 18.7035 4.07233C18.8691 4.03402 19.0356 3.9957 19.1995 3.95057C19.3642 3.90545 19.535 3.90035 19.6997 3.83903C19.8219 3.79391 19.9619 3.81861 20.0994 3.7803C20.3127 3.7207 20.5459 3.73261 20.7696 3.70792C20.9036 3.69345 21.036 3.6611 21.17 3.65002C21.31 3.6381 21.4509 3.64321 21.5909 3.63725C21.5986 3.63725 21.6054 3.6049 21.6131 3.58702C22.4029 3.58702 23.1926 3.58702 23.9824 3.58702L23.9806 3.58787Z" fill="black"/>
<path d="M20.1794 23.5421C21.7752 23.5421 23.0689 22.2484 23.0689 20.6526C23.0689 19.0568 21.7752 17.7632 20.1794 17.7632C18.5836 17.7632 17.2899 19.0568 17.2899 20.6526C17.2899 22.2484 18.5836 23.5421 20.1794 23.5421Z" fill="black"/>
<path d="M28.6611 23.5421C30.257 23.5421 31.5506 22.2484 31.5506 20.6526C31.5506 19.0568 30.257 17.7632 28.6611 17.7632C27.0653 17.7632 25.7717 19.0568 25.7717 20.6526C25.7717 22.2484 27.0653 23.5421 28.6611 23.5421Z" fill="black"/>
<path d="M36.8837 23.5421C38.4795 23.5421 39.7732 22.2484 39.7732 20.6526C39.7732 19.0568 38.4795 17.7632 36.8837 17.7632C35.2879 17.7632 33.9942 19.0568 33.9942 20.6526C33.9942 22.2484 35.2879 23.5421 36.8837 23.5421Z" fill="black"/>
</svg>
