<svg width="109" height="45" viewBox="0 0 109 45" fill="none" xmlns="http://www.w3.org/2000/svg">
<g clip-path="url(#clip0_8205_5136)">
<mask id="mask0_8205_5136" style="mask-type:luminance" maskUnits="userSpaceOnUse" x="0" y="0" width="109" height="45">
<path d="M109 0H0V45H109V0Z" fill="white"/>
</mask>
<g mask="url(#mask0_8205_5136)">
<mask id="mask1_8205_5136" style="mask-type:luminance" maskUnits="userSpaceOnUse" x="0" y="-1" width="109" height="41">
<path d="M109 -0.217285H0V39.1834H109V-0.217285Z" fill="white"/>
</mask>
<g mask="url(#mask1_8205_5136)">
<path d="M16.9821 5.71387H23.3878V6.91425H20.8691V13.6622H19.4841V6.91425H16.9766V5.71387H16.9821ZM23.1141 7.90709H24.2981V9.01772H24.3204C24.3595 8.86066 24.4321 8.70921 24.5382 8.56337C24.6443 8.41753 24.7728 8.2773 24.9235 8.1595C25.0743 8.0361 25.2419 7.94074 25.4262 7.86221C25.6105 7.78929 25.8003 7.75003 25.9902 7.75003C26.1354 7.75003 26.2415 7.75564 26.2974 7.76125C26.3532 7.76686 26.4091 7.77808 26.4705 7.78368V9.0065C26.3811 8.98967 26.2918 8.97845 26.1969 8.96724C26.1019 8.95602 26.0126 8.95041 25.9232 8.95041C25.711 8.95041 25.5099 8.99528 25.3201 9.07942C25.1302 9.16356 24.9682 9.29257 24.8286 9.45524C24.689 9.62352 24.5773 9.82545 24.4935 10.0723C24.4098 10.3191 24.3707 10.5996 24.3707 10.9193V13.6566H23.1085V7.90709H23.1141ZM32.273 13.6622H31.0332V12.8601H31.0108C30.8545 13.1517 30.6255 13.3817 30.3183 13.5556C30.0112 13.7295 29.6984 13.8192 29.3801 13.8192C28.6262 13.8192 28.0789 13.6341 27.7438 13.2583C27.4087 12.8825 27.2412 12.316 27.2412 11.5587V7.90709H28.5033V11.4353C28.5033 11.9401 28.5983 12.2991 28.7937 12.5067C28.9836 12.7142 29.2573 12.8208 29.6035 12.8208C29.8716 12.8208 30.0894 12.7815 30.2681 12.6974C30.4468 12.6132 30.592 12.5067 30.6981 12.3664C30.8098 12.2318 30.888 12.0635 30.9382 11.8728C30.9885 11.6821 31.0108 11.4746 31.0108 11.2502V7.9127H32.273V13.6622ZM34.4231 11.8167C34.4622 12.1869 34.6018 12.445 34.8419 12.5964C35.0877 12.7423 35.3781 12.8208 35.7187 12.8208C35.836 12.8208 35.97 12.8096 36.1208 12.7927C36.2716 12.7759 36.4168 12.7366 36.5453 12.6862C36.6793 12.6357 36.7854 12.5572 36.8747 12.4562C36.9585 12.3552 36.9976 12.2262 36.992 12.0635C36.9864 11.9009 36.925 11.7662 36.8133 11.6653C36.7016 11.5587 36.562 11.4802 36.3889 11.4129C36.2158 11.3512 36.0203 11.2951 35.7969 11.2502C35.5735 11.2053 35.3501 11.1548 35.1212 11.1044C34.8866 11.0539 34.6576 10.9866 34.4398 10.9136C34.222 10.8407 34.0266 10.7398 33.8534 10.6108C33.6803 10.4874 33.5407 10.3247 33.4402 10.1284C33.3341 9.93203 33.2838 9.69083 33.2838 9.39915C33.2838 9.08503 33.362 8.827 33.5128 8.61385C33.6636 8.4007 33.859 8.23242 34.088 8.10341C34.3226 7.9744 34.5794 7.88465 34.8643 7.82856C35.1491 7.77808 35.4227 7.75003 35.6796 7.75003C35.9756 7.75003 36.2604 7.78369 36.5285 7.84539C36.7966 7.90709 37.0423 8.00805 37.2601 8.1539C37.4779 8.29413 37.6566 8.47923 37.8018 8.7036C37.947 8.92797 38.0364 9.20282 38.0755 9.52255H36.7575C36.696 9.21965 36.562 9.01211 36.3442 8.91114C36.1264 8.80457 35.8751 8.75408 35.5959 8.75408C35.5065 8.75408 35.4004 8.75969 35.2775 8.77652C35.1547 8.79335 35.043 8.82139 34.9313 8.86066C34.8252 8.89992 34.7358 8.96163 34.6576 9.04016C34.585 9.11868 34.5459 9.21965 34.5459 9.34866C34.5459 9.50572 34.6018 9.62913 34.7079 9.72448C34.814 9.81984 34.9536 9.89837 35.1267 9.96568C35.2999 10.0274 35.4953 10.0835 35.7187 10.1284C35.9421 10.1732 36.1711 10.2237 36.4056 10.2742C36.6346 10.3247 36.858 10.392 37.0814 10.4649C37.3048 10.5378 37.5002 10.6388 37.6734 10.7678C37.8465 10.8968 37.9861 11.0539 38.0922 11.2446C38.1983 11.4353 38.2542 11.6765 38.2542 11.957C38.2542 12.2991 38.176 12.5852 38.0196 12.8264C37.8632 13.062 37.6622 13.2583 37.4165 13.4041C37.1707 13.55 36.8915 13.6622 36.5899 13.7295C36.2884 13.7968 35.9868 13.8305 35.6908 13.8305C35.3278 13.8305 34.9927 13.7912 34.6856 13.707C34.3784 13.6229 34.1103 13.4995 33.8869 13.3368C33.6636 13.1686 33.4849 12.961 33.3564 12.7142C33.228 12.4674 33.1609 12.1701 33.1498 11.828H34.4231V11.8167ZM38.5892 7.90709H39.5442V6.17944H40.8064V7.90709H41.9456V8.85505H40.8064V11.9289C40.8064 12.0635 40.8119 12.1757 40.8231 12.2767C40.8343 12.372 40.8622 12.4562 40.9013 12.5235C40.9404 12.5908 41.0018 12.6413 41.0856 12.6749C41.1694 12.7086 41.2755 12.7254 41.4207 12.7254C41.51 12.7254 41.5994 12.7254 41.6887 12.7198C41.7781 12.7142 41.8674 12.703 41.9568 12.6806V13.6622C41.8172 13.679 41.6776 13.6902 41.5491 13.707C41.4151 13.7239 41.2811 13.7295 41.1414 13.7295C40.8064 13.7295 40.5383 13.6958 40.3372 13.6341C40.1362 13.5724 39.9742 13.4771 39.8625 13.3537C39.7453 13.2303 39.6727 13.0788 39.628 12.8937C39.5889 12.7086 39.561 12.4955 39.5554 12.2599V8.86627H38.6004V7.90709H38.5892ZM42.8392 7.90709H44.0343V8.68677H44.0566C44.2353 8.35022 44.4811 8.11463 44.7994 7.96879C45.1177 7.82295 45.4584 7.75003 45.8326 7.75003C46.2849 7.75003 46.6759 7.82856 47.0109 7.99123C47.346 8.14829 47.6252 8.36705 47.8486 8.64751C48.072 8.92797 48.234 9.25331 48.3457 9.62352C48.4574 9.99373 48.5132 10.392 48.5132 10.8127C48.5132 11.1997 48.4629 11.5755 48.3624 11.9345C48.2619 12.2991 48.1111 12.6189 47.9101 12.8993C47.709 13.1798 47.4521 13.3985 47.1394 13.5668C46.8266 13.7351 46.4636 13.8192 46.0392 13.8192C45.8549 13.8192 45.6706 13.8024 45.4863 13.7687C45.302 13.7351 45.1233 13.679 44.9558 13.6061C44.7882 13.5332 44.6263 13.4378 44.4867 13.32C44.3415 13.2022 44.2242 13.0676 44.1237 12.9161H44.1013V15.7881H42.8392V7.90709ZM47.2511 10.7902C47.2511 10.5322 47.2176 10.2798 47.1506 10.033C47.0835 9.78619 46.983 9.57303 46.849 9.38232C46.7149 9.19161 46.5474 9.04016 46.3519 8.92797C46.1509 8.81579 45.9219 8.75408 45.665 8.75408C45.1345 8.75408 44.7324 8.93919 44.4643 9.3094C44.1963 9.67961 44.0622 10.1732 44.0622 10.7902C44.0622 11.0819 44.0957 11.3512 44.1683 11.598C44.2409 11.8448 44.3415 12.0579 44.4867 12.2374C44.6263 12.4169 44.7938 12.5572 44.9893 12.6581C45.1847 12.7647 45.4137 12.8152 45.6706 12.8152C45.961 12.8152 46.2012 12.7535 46.4022 12.6357C46.6033 12.5179 46.7652 12.3608 46.8936 12.1757C47.0221 11.985 47.117 11.7719 47.1729 11.5307C47.2231 11.2895 47.2511 11.0427 47.2511 10.7902ZM49.4794 5.71387H50.7415V6.91425H49.4794V5.71387ZM49.4794 7.90709H50.7415V13.6622H49.4794V7.90709ZM51.8696 5.71387H53.1317V13.6622H51.8696V5.71387ZM57.0019 13.8192C56.544 13.8192 56.1363 13.7407 55.7789 13.5893C55.4215 13.4378 55.1199 13.2247 54.8686 12.961C54.6228 12.6918 54.433 12.372 54.3045 12.0018C54.1761 11.6316 54.1091 11.2222 54.1091 10.779C54.1091 10.3415 54.1761 9.93763 54.3045 9.56742C54.433 9.19721 54.6228 8.87749 54.8686 8.60824C55.1143 8.339 55.4215 8.13146 55.7789 7.98001C56.1363 7.82856 56.544 7.75003 57.0019 7.75003C57.4599 7.75003 57.8675 7.82856 58.225 7.98001C58.5824 8.13146 58.8839 8.34461 59.1353 8.60824C59.381 8.87749 59.5709 9.19721 59.6993 9.56742C59.8278 9.93763 59.8948 10.3415 59.8948 10.779C59.8948 11.2222 59.8278 11.6316 59.6993 12.0018C59.5709 12.372 59.381 12.6918 59.1353 12.961C58.8895 13.2303 58.5824 13.4378 58.225 13.5893C57.8675 13.7407 57.4599 13.8192 57.0019 13.8192ZM57.0019 12.8152C57.2811 12.8152 57.5269 12.7535 57.7335 12.6357C57.9401 12.5179 58.1077 12.3608 58.2417 12.1701C58.3757 11.9794 58.4707 11.7606 58.5377 11.5194C58.5991 11.2782 58.6326 11.0314 58.6326 10.779C58.6326 10.5322 58.5991 10.291 58.5377 10.0442C58.4763 9.7974 58.3757 9.58425 58.2417 9.39354C58.1077 9.20282 57.9401 9.05137 57.7335 8.93358C57.5269 8.81579 57.2811 8.75408 57.0019 8.75408C56.7227 8.75408 56.477 8.81579 56.2703 8.93358C56.0637 9.05137 55.8961 9.20843 55.7621 9.39354C55.6281 9.58425 55.5331 9.7974 55.4661 10.0442C55.4047 10.291 55.3712 10.5322 55.3712 10.779C55.3712 11.0314 55.4047 11.2782 55.4661 11.5194C55.5276 11.7606 55.6281 11.9794 55.7621 12.1701C55.8961 12.3608 56.0637 12.5179 56.2703 12.6357C56.477 12.7591 56.7227 12.8152 57.0019 12.8152ZM60.2634 7.90709H61.2183V6.17944H62.4805V7.90709H63.6198V8.85505H62.4805V11.9289C62.4805 12.0635 62.4861 12.1757 62.4972 12.2767C62.5084 12.372 62.5363 12.4562 62.5754 12.5235C62.6145 12.5908 62.6759 12.6413 62.7597 12.6749C62.8435 12.7086 62.9496 12.7254 63.0948 12.7254C63.1841 12.7254 63.2735 12.7254 63.3629 12.7198C63.4522 12.7142 63.5416 12.703 63.6309 12.6806V13.6622C63.4913 13.679 63.3517 13.6902 63.2232 13.707C63.0892 13.7239 62.9552 13.7295 62.8156 13.7295C62.4805 13.7295 62.2124 13.6958 62.0114 13.6341C61.8103 13.5724 61.6484 13.4771 61.5367 13.3537C61.4194 13.2303 61.3468 13.0788 61.3021 12.8937C61.263 12.7086 61.2351 12.4955 61.2295 12.2599V8.86627H60.2745V7.90709H60.2634Z" fill="#050505"/>
<path d="M15.5028 5.71431H9.71702L7.92992 0.183594L6.13732 5.71431L0.351562 5.7087L5.0371 9.13034L3.24442 14.6555L7.92992 11.2394L12.6099 14.6555L10.8228 9.13034L15.5028 5.71431Z" fill="#00B67A"/>
<path d="M11.2246 10.3813L10.8225 9.13037L7.92969 11.2395L11.2246 10.3813Z" fill="#005128"/>
<path d="M19.9548 19.8291H0V39.7744H19.9548V19.8291Z" fill="#00B67A"/>
<mask id="mask2_8205_5136" style="mask-type:luminance" maskUnits="userSpaceOnUse" x="2" y="23" width="16" height="14">
<path d="M17.0204 23.1167H2.9375V36.4865H17.0204V23.1167Z" fill="white"/>
</mask>
<g mask="url(#mask2_8205_5136)">
<path d="M17.0204 28.2263H11.6427L9.98155 23.1167L8.31525 28.2263L2.9375 28.2211L7.29265 31.3822L5.62638 36.4865L9.98155 33.3306L14.3316 36.4865L12.6705 31.3822L17.0204 28.2263Z" fill="white"/>
<path d="M13.047 32.5379L12.6733 31.3823L9.98438 33.3308L13.047 32.5379Z" fill="#00B67A"/>
</g>
<path d="M42.2595 19.8291H22.3047V39.7744H42.2595V19.8291Z" fill="#00B67A"/>
<mask id="mask3_8205_5136" style="mask-type:luminance" maskUnits="userSpaceOnUse" x="25" y="23" width="15" height="14">
<path d="M39.3251 23.1167H25.2422V36.4865H39.3251V23.1167Z" fill="white"/>
</mask>
<g mask="url(#mask3_8205_5136)">
<path d="M39.3251 28.2263H33.9473L32.2863 23.1167L30.62 28.2263L25.2422 28.2211L29.5974 31.3822L27.9311 36.4865L32.2863 33.3306L36.6362 36.4865L34.9751 31.3822L39.3251 28.2263Z" fill="white"/>
<path d="M35.3517 32.5379L34.9779 31.3823L32.2891 33.3308L35.3517 32.5379Z" fill="#00B67A"/>
</g>
<path d="M64.5642 19.8291H44.6094V39.7744H64.5642V19.8291Z" fill="#00B67A"/>
<mask id="mask4_8205_5136" style="mask-type:luminance" maskUnits="userSpaceOnUse" x="47" y="23" width="15" height="14">
<path d="M61.6298 23.1167H47.5469V36.4865H61.6298V23.1167Z" fill="white"/>
</mask>
<g mask="url(#mask4_8205_5136)">
<path d="M61.6298 28.2263H56.252L54.5909 23.1167L52.9246 28.2263L47.5469 28.2211L51.902 31.3822L50.2358 36.4865L54.5909 33.3306L58.9409 36.4865L57.2798 31.3822L61.6298 28.2263Z" fill="white"/>
<path d="M57.6563 32.5379L57.2826 31.3823L54.5938 33.3308L57.6563 32.5379Z" fill="#00B67A"/>
</g>
<path d="M86.8767 19.8291H66.9219V39.7744H86.8767V19.8291Z" fill="#00B67A"/>
<mask id="mask5_8205_5136" style="mask-type:luminance" maskUnits="userSpaceOnUse" x="69" y="23" width="15" height="14">
<path d="M83.9345 23.1167H69.8516V36.4865H83.9345V23.1167Z" fill="white"/>
</mask>
<g mask="url(#mask5_8205_5136)">
<path d="M83.9345 28.2263H78.5567L76.8957 23.1167L75.2294 28.2263L69.8516 28.2211L74.2068 31.3822L72.5405 36.4865L76.8957 33.3306L81.2456 36.4865L79.5845 31.3822L83.9345 28.2263Z" fill="white"/>
<path d="M79.961 32.5379L79.5872 31.3823L76.8984 33.3308L79.961 32.5379Z" fill="#00B67A"/>
</g>
<path d="M108.963 19.8291H89.0078V39.7744H108.963V19.8291Z" fill="#00B67A"/>
<path d="M108.964 19.8291H99.3359V39.7876H108.964V19.8291Z" fill="#00B67A"/>
<mask id="mask6_8205_5136" style="mask-type:luminance" maskUnits="userSpaceOnUse" x="92" y="23" width="15" height="14">
<path d="M106.372 23.1167H92.2891V36.4865H106.372V23.1167Z" fill="white"/>
</mask>
<g mask="url(#mask6_8205_5136)">
<path d="M106.372 28.2263H100.994L99.333 23.1167L97.667 28.2263L92.2891 28.2211L96.644 31.3822L94.9779 36.4865L99.333 33.3306L103.683 36.4865L102.022 31.3822L106.372 28.2263Z" fill="white"/>
<path d="M102.399 32.5379L102.025 31.3823L99.3359 33.3308L102.399 32.5379Z" fill="#00B67A"/>
</g>
</g>
</g>
</g>
<defs>
<clipPath id="clip0_8205_5136">
<rect width="109" height="45" fill="white"/>
</clipPath>
</defs>
</svg>
